<svg xmlns="http://www.w3.org/2000/svg" width="1599" height="3621" viewBox="0 0 1599 3621"><g transform="translate(114)"><path d="M0,0H1366V3528H0Z" fill="#141414"/><circle cx="245" cy="245" r="245" transform="translate(43 3131)" fill="#f19f24"/><circle cx="245" cy="245" r="245" transform="translate(228 194)" fill="#f19f24"/><circle cx="71.5" cy="71.5" r="71.5" transform="translate(-71 1188)" fill="#f19f24"/><circle cx="52.5" cy="52.5" r="52.5" transform="translate(-25 2069)" fill="#f19f24"/><circle cx="52.5" cy="52.5" r="52.5" transform="translate(30 3060)" fill="#f19f24"/><circle cx="52.5" cy="52.5" r="52.5" transform="translate(100 579)" fill="#f19f24"/><circle cx="52.5" cy="52.5" r="52.5" transform="translate(1057 1401)" fill="#f19f24"/><ellipse cx="116" cy="116.5" rx="116" ry="116.5" transform="translate(-114 1806)" fill="#f19f24"/><ellipse cx="116" cy="116.5" rx="116" ry="116.5" transform="translate(1184 1442)" fill="#f19f24"/><circle cx="173.5" cy="173.5" r="173.5" transform="translate(1138 602)" fill="#f19f24"/><circle cx="173.5" cy="173.5" r="173.5" transform="translate(1083 2320)" fill="#f19f24"/></g></svg>