<?xml version="1.0" standalone="no"?>
<!DOCTYPE svg PUBLIC "-//W3C//DTD SVG 20010904//EN"
 "http://www.w3.org/TR/2001/REC-SVG-20010904/DTD/svg10.dtd">
<svg version="1.0" xmlns="http://www.w3.org/2000/svg"
 width="700.000000pt" height="700.000000pt" viewBox="0 0 700.000000 700.000000"
 preserveAspectRatio="xMidYMid meet">
<metadata>
Created by potrace 1.14, written by Peter Selinger 2001-2017
</metadata>
<g transform="translate(0.000000,700.000000) scale(0.100000,-0.100000)"
fill="#000000" stroke="none">
<path d="M3345 6080 c-3 -5 -24 -10 -46 -10 -21 0 -39 -4 -39 -9 0 -10 -61
-21 -74 -13 -12 7 -127 2 -141 -6 -5 -3 -21 -7 -35 -9 -45 -5 -58 -9 -76 -23
-11 -9 -15 -10 -10 -2 4 7 1 12 -9 12 -9 0 -13 -4 -10 -10 4 -6 -8 -10 -29
-10 -20 0 -36 -5 -36 -11 0 -8 -5 -8 -15 1 -9 7 -15 8 -15 2 0 -5 -7 -13 -16
-16 -10 -4 -13 -2 -8 7 6 9 4 9 -7 1 -8 -6 -31 -17 -52 -24 -20 -6 -35 -15
-32 -20 3 -5 -3 -7 -12 -6 -10 2 -24 -5 -31 -16 -7 -10 -18 -16 -23 -13 -5 4
-12 -1 -15 -9 -3 -9 -10 -13 -15 -10 -5 3 -9 0 -9 -7 0 -7 -3 -10 -6 -6 -4 3
-12 1 -20 -6 -33 -29 -44 -37 -44 -31 0 3 -9 -4 -21 -17 -11 -13 -17 -17 -13
-9 7 13 5 13 -9 1 -9 -7 -14 -17 -11 -22 3 -5 -8 -12 -25 -15 -17 -4 -31 -11
-31 -16 0 -6 -9 -8 -20 -5 -11 3 -20 0 -20 -6 0 -6 -3 -7 -7 -4 -3 4 -12 2
-20 -5 -7 -6 -16 -8 -19 -5 -4 3 -13 -1 -21 -9 -8 -8 -19 -12 -24 -9 -5 4 -9
2 -9 -4 0 -6 -11 -13 -25 -17 -14 -3 -25 -12 -25 -20 0 -8 -8 -11 -20 -9 -11
2 -18 0 -16 -4 3 -4 -6 -14 -20 -22 -14 -7 -30 -21 -35 -31 -5 -10 -16 -18
-24 -18 -8 0 -15 -4 -15 -10 0 -5 -10 -18 -22 -30 -12 -11 -18 -20 -14 -20 4
0 -4 -11 -18 -23 -14 -13 -23 -27 -19 -30 3 -4 1 -7 -5 -7 -6 0 -16 -18 -22
-40 -6 -22 -15 -38 -20 -35 -9 5 -15 -15 -11 -37 0 -5 -3 -8 -9 -8 -5 0 -7 -7
-4 -15 4 -8 2 -15 -3 -15 -5 0 -10 -10 -10 -22 -5 -83 -4 -148 1 -178 10 -58
11 -64 19 -77 5 -8 3 -13 -5 -13 -8 -1 -6 -6 6 -15 11 -8 17 -15 13 -15 -4 0
-3 -9 3 -20 8 -15 6 -24 -10 -40 -11 -11 -20 -25 -20 -31 0 -5 -4 -8 -9 -4 -6
3 -8 -4 -6 -15 2 -11 -1 -20 -6 -20 -6 0 -7 -4 -4 -10 3 -5 3 -10 -2 -10 -15
0 -43 -59 -31 -66 7 -4 6 -9 -2 -14 -7 -4 -12 -19 -12 -34 0 -14 -7 -31 -14
-37 -11 -9 -11 -15 -3 -25 8 -10 8 -14 1 -14 -6 0 -9 -9 -7 -20 2 -11 -2 -20
-8 -20 -8 0 -8 -3 2 -9 9 -6 10 -11 2 -15 -6 -4 -11 -12 -11 -17 0 -6 6 -7 13
-3 9 6 9 5 0 -7 -10 -12 -10 -18 0 -29 9 -10 9 -11 0 -6 -9 5 -13 -1 -13 -18
0 -14 6 -26 13 -26 7 0 8 -3 2 -8 -6 -4 -12 -22 -14 -41 -2 -26 0 -31 11 -25
10 6 11 5 2 -7 -15 -18 -14 -99 0 -99 7 0 8 -3 1 -8 -13 -9 -18 -32 -7 -32 5
0 8 -12 7 -27 -1 -16 2 -34 8 -40 6 -9 5 -13 -3 -13 -8 0 -9 -4 -3 -12 9 -13
14 -44 16 -100 0 -16 4 -28 7 -28 4 0 6 -18 6 -40 -1 -22 1 -40 5 -40 4 0 7
-10 7 -22 0 -33 6 -52 17 -60 6 -5 5 -8 -3 -8 -10 0 -10 -5 -2 -21 13 -23 21
-54 23 -84 1 -11 7 -23 12 -27 9 -7 13 -22 18 -70 1 -10 5 -18 9 -18 4 0 6
-12 4 -27 -1 -22 -6 -27 -21 -25 -11 2 -21 8 -23 13 -2 5 -10 9 -18 9 -8 0
-13 3 -13 8 3 18 -2 26 -10 14 -7 -11 -11 -10 -24 2 -10 10 -18 12 -22 6 -4
-6 -11 -8 -16 -5 -5 4 -9 1 -9 -4 0 -6 -3 -10 -7 -9 -5 2 -8 1 -8 -2 0 -3 -10
-16 -22 -29 -12 -13 -20 -28 -17 -33 3 -4 0 -8 -6 -8 -7 0 -10 -7 -7 -15 4 -8
2 -17 -3 -20 -6 -4 -10 -11 -10 -16 0 -6 6 -7 13 -3 9 6 9 4 1 -7 -12 -15 -16
-199 -5 -199 4 0 7 -23 8 -51 0 -31 6 -55 14 -60 12 -7 12 -9 0 -9 -11 0 -11
-3 -1 -15 7 -8 10 -22 6 -30 -3 -8 -2 -15 2 -15 4 0 8 -13 9 -28 3 -42 7 -56
18 -64 6 -5 5 -8 -4 -8 -11 0 -11 -3 -1 -15 7 -8 9 -15 5 -15 -4 0 -1 -8 6
-17 9 -10 9 -14 2 -10 -9 6 -8 0 1 -19 17 -31 14 -60 -5 -55 -30 7 -58 8 -54
1 2 -4 -9 -7 -25 -6 -17 1 -30 4 -30 7 0 3 -7 6 -15 6 -8 0 -12 -4 -9 -8 2 -4
-5 -7 -16 -6 -11 1 -20 5 -20 10 0 5 -7 4 -15 -3 -8 -6 -18 -9 -24 -6 -5 3
-11 -1 -15 -9 -3 -8 -11 -15 -18 -15 -14 0 -54 -40 -40 -40 4 0 1 -4 -7 -9
-12 -7 -15 -37 -15 -130 -1 -67 1 -121 4 -121 3 0 5 -31 6 -69 0 -46 -3 -68
-10 -63 -6 3 -5 -1 2 -10 12 -15 13 -24 12 -97 0 -18 5 -40 12 -49 8 -9 8 -13
2 -9 -8 4 -11 -3 -10 -23 0 -17 5 -30 11 -30 7 0 7 -3 0 -8 -14 -10 -17 -32
-4 -32 8 0 8 -4 0 -13 -8 -10 -7 -17 1 -25 9 -9 9 -12 0 -12 -10 0 -10 -5 0
-22 7 -13 11 -27 9 -33 -6 -20 -4 -81 3 -93 4 -7 3 -12 -1 -12 -5 0 -9 -9 -9
-20 0 -11 3 -20 6 -20 3 0 4 -23 3 -50 -1 -34 2 -48 9 -44 7 5 8 2 2 -7 -10
-16 -13 -70 -4 -64 11 7 6 -70 -5 -77 -7 -5 -6 -8 1 -8 6 0 11 -21 11 -49 1
-27 4 -54 8 -60 3 -6 0 -11 -7 -11 -10 0 -10 -2 1 -9 11 -7 11 -9 0 -14 -8 -3
-9 -6 -4 -6 6 -1 9 -22 8 -47 -1 -35 -8 -51 -28 -70 -14 -13 -31 -24 -36 -24
-6 0 -7 -4 -4 -10 3 -5 -1 -10 -9 -10 -9 0 -16 -7 -16 -15 0 -9 -7 -18 -15
-22 -9 -3 -22 -18 -31 -34 -8 -16 -21 -29 -30 -29 -8 0 -13 -4 -10 -8 3 -5 -6
-25 -19 -45 -14 -20 -25 -40 -25 -45 0 -5 -7 -15 -15 -22 -8 -7 -13 -16 -10
-20 3 -5 -4 -24 -15 -43 -12 -19 -23 -45 -25 -58 -3 -12 -8 -25 -13 -28 -4 -3
-7 -13 -7 -21 1 -8 -3 -20 -8 -27 -5 -7 -6 -17 -2 -23 3 -5 1 -10 -5 -10 -6 0
-8 -5 -5 -10 3 -6 0 -10 -7 -10 -9 0 -9 -3 2 -10 11 -7 11 -10 2 -10 -7 0 -10
-4 -7 -10 3 -5 -2 -10 -12 -10 -12 0 -14 -3 -6 -8 7 -5 9 -13 3 -21 -4 -8 -6
-20 -3 -28 3 -7 0 -13 -7 -13 -9 0 -9 -4 1 -17 10 -11 10 -14 1 -9 -8 5 -12
-2 -12 -24 0 -17 -4 -29 -8 -26 -5 3 -8 -8 -7 -24 1 -17 -1 -30 -5 -30 -4 0
-7 -6 -8 -12 -4 -30 -10 -63 -12 -65 -4 -5 -7 -22 -9 -49 0 -14 -5 -22 -11
-19 -22 14 -8 -6 15 -21 19 -12 28 -14 38 -5 8 6 17 8 21 4 4 -4 115 -8 247
-9 150 -1 245 -6 251 -12 6 -6 17 -8 24 -5 8 3 14 0 14 -7 0 -10 3 -10 15 0
12 10 18 10 29 1 10 -9 16 -9 21 -1 5 8 10 8 20 0 10 -8 15 -8 20 0 5 8 10 8
20 0 9 -8 15 -8 20 0 3 6 12 7 18 3 17 -10 47 -11 41 -1 -3 4 -1 8 5 8 5 0 13
-5 16 -10 4 -6 13 -7 23 -1 25 13 25 13 55 2 18 -7 26 -7 22 -1 -3 6 -2 10 4
10 5 0 13 -5 16 -10 4 -6 13 -7 23 -1 25 13 25 13 55 2 18 -7 26 -7 22 -1 -3
6 -2 10 4 10 5 0 13 -5 16 -10 4 -7 13 -6 26 1 15 7 24 7 34 -1 9 -8 15 -8 20
0 5 8 10 8 20 0 10 -8 15 -8 20 0 5 8 10 8 20 0 9 -8 15 -8 20 0 3 6 12 7 18
3 17 -10 47 -11 41 -1 -3 4 -1 8 5 8 5 0 13 -5 16 -10 4 -7 14 -6 28 2 12 6
24 10 27 8 21 -12 50 -18 45 -10 -3 6 -2 10 4 10 5 0 13 -5 16 -10 4 -7 14 -6
28 2 12 6 24 10 27 8 21 -12 50 -18 45 -10 -3 6 -2 10 4 10 5 0 13 -5 16 -10
4 -7 13 -6 26 1 15 7 24 7 34 -1 9 -8 15 -8 20 0 5 8 11 8 19 1 7 -6 16 -8 19
-5 8 9 77 12 77 4 0 -4 7 -7 15 -7 8 0 12 4 9 9 -3 4 -1 8 5 8 5 0 13 -5 16
-10 4 -6 13 -7 23 -1 25 13 25 13 55 2 18 -7 26 -7 22 -1 -3 6 -2 10 4 10 5 0
13 -5 16 -10 4 -7 14 -6 28 2 12 6 22 11 22 10 0 0 13 -5 28 -11 18 -7 26 -7
22 -1 -3 6 -2 10 4 10 5 0 13 -5 16 -10 4 -7 13 -6 26 1 15 7 24 7 34 -1 9 -8
15 -8 20 0 5 8 10 8 20 0 10 -8 15 -8 20 0 5 8 10 8 20 0 9 -8 15 -8 20 0 3 6
12 7 18 3 17 -10 47 -11 41 -1 -3 4 -1 8 5 8 5 0 13 -5 16 -10 4 -6 13 -7 23
-1 25 13 25 13 55 2 18 -7 26 -7 22 -1 -3 6 -2 10 4 10 5 0 13 -5 16 -10 4 -7
14 -6 28 2 12 6 22 11 22 10 0 0 13 -5 28 -11 18 -7 26 -7 22 -1 -3 6 -2 10 4
10 5 0 13 -5 16 -10 4 -7 13 -6 26 1 15 7 24 7 34 -1 9 -8 15 -8 20 0 5 8 10
8 20 0 10 -8 15 -8 20 0 5 8 10 8 20 0 10 -8 15 -8 20 0 5 7 11 8 19 1 7 -6
18 -6 26 -1 7 4 24 4 37 -1 16 -6 22 -5 18 1 -3 6 -2 10 4 10 5 0 13 -5 16
-10 4 -6 13 -7 23 -2 19 9 81 8 107 -2 9 -3 13 -2 10 4 -3 6 -2 10 4 10 5 0
13 -5 16 -10 4 -6 13 -7 23 -2 19 9 81 8 107 -2 9 -3 13 -2 10 4 -3 6 -2 10 4
10 5 0 13 -5 16 -10 4 -6 13 -7 23 -2 19 9 81 8 107 -2 9 -3 13 -2 10 4 -3 6
-2 10 4 10 5 0 13 -5 16 -10 4 -6 13 -7 23 -2 19 9 81 8 107 -2 9 -3 13 -2 10
4 -3 6 -2 10 4 10 5 0 13 -5 16 -10 4 -6 13 -7 23 -2 19 9 81 8 107 -2 9 -3
13 -2 10 4 -3 6 -2 10 4 10 5 0 13 -5 16 -10 4 -6 13 -7 23 -2 19 9 81 8 107
-2 9 -3 13 -2 10 4 -3 6 -2 10 4 10 5 0 13 -5 16 -10 4 -6 13 -7 23 -2 19 9
81 8 107 -2 9 -3 13 -2 10 4 -3 6 -2 10 4 10 5 0 13 -5 16 -10 4 -6 13 -7 23
-2 19 9 81 8 107 -2 9 -3 13 -2 10 4 -3 6 -2 10 4 10 5 0 13 -5 16 -10 4 -6
13 -7 23 -1 9 5 27 7 40 5 12 -2 37 2 55 9 22 8 95 12 234 11 118 0 199 4 196
9 -3 5 2 5 13 0 17 -7 50 -8 117 -4 15 1 18 8 15 44 -2 23 -7 45 -12 49 -5 3
-9 20 -8 37 0 17 -3 31 -7 31 -4 0 -8 15 -9 32 0 18 -6 34 -12 36 -8 3 -8 8 1
18 9 11 9 14 0 14 -7 0 -10 4 -6 9 3 5 0 13 -6 16 -5 4 -8 13 -5 21 3 8 1 14
-5 14 -6 0 -6 7 1 20 8 15 8 20 -1 18 -12 -3 -20 19 -23 60 0 12 -6 22 -11 22
-6 0 -11 8 -12 18 -2 43 -8 70 -13 67 -4 -2 -12 18 -19 45 -7 28 -17 50 -23
50 -5 0 -7 3 -5 8 2 4 -4 21 -14 37 -11 17 -22 38 -25 48 -4 9 -10 17 -15 17
-5 0 -9 7 -9 15 0 8 -5 15 -12 15 -6 0 -9 3 -5 6 3 3 -6 18 -21 33 -39 40 -62
70 -62 81 0 6 -7 10 -16 10 -8 0 -13 4 -10 9 3 5 -7 14 -22 20 -27 11 -67 63
-56 73 2 3 6 52 8 110 2 58 7 111 11 118 4 7 2 16 -6 22 -11 7 -11 11 -1 15 6
2 12 9 12 14 0 6 -6 7 -12 3 -10 -6 -10 -4 0 8 9 12 10 18 2 23 -8 5 -6 13 5
25 9 10 13 20 8 23 -8 5 -10 117 -1 133 2 5 3 34 2 64 -1 30 2 65 7 78 6 15 5
22 -4 22 -7 0 -8 3 -2 8 14 10 15 56 1 64 -8 6 -8 8 1 8 9 0 12 18 10 65 -2
36 0 65 3 65 3 0 4 16 2 36 -3 28 -1 35 8 29 10 -6 11 -4 4 6 -11 17 -12 79
-2 73 5 -3 8 0 8 5 0 6 -6 11 -12 11 -9 0 -8 4 2 10 11 7 11 10 2 10 -7 0 -10
5 -6 12 4 6 9 54 11 107 1 53 5 101 8 108 2 7 0 15 -6 19 -6 3 -8 12 -5 20 3
8 1 14 -4 14 -6 0 -10 6 -10 14 0 8 -7 17 -16 20 -8 3 -13 10 -10 14 7 11 -38
32 -68 32 -12 0 -26 3 -30 7 -9 9 -46 11 -40 2 2 -4 -5 -7 -16 -6 -11 1 -20 6
-20 12 0 5 -5 3 -10 -5 -6 -10 -10 -11 -10 -3 0 9 -7 10 -24 3 -17 -6 -29 -5
-42 6 -11 9 -14 13 -7 9 8 -4 11 3 10 22 -1 19 2 27 11 25 10 -2 11 2 3 15 -7
13 -5 23 7 37 11 13 12 17 3 11 -11 -6 -13 -4 -7 11 5 10 8 26 9 34 0 8 3 20
7 25 4 6 6 18 5 28 -2 9 0 17 4 17 4 0 7 10 6 23 -1 12 3 28 9 36 8 11 8 13
-1 7 -9 -5 -11 -2 -7 8 3 9 10 16 14 16 5 0 6 9 3 21 -4 12 0 25 8 30 10 6 10
9 2 9 -15 0 -13 41 2 52 6 5 5 8 -4 8 -9 0 -10 4 -4 13 12 14 11 126 -1 146
-7 10 -5 12 5 6 12 -7 12 -6 1 7 -7 9 -12 20 -11 24 4 14 -23 64 -33 64 -5 0
-6 5 -3 10 3 6 1 10 -5 10 -6 0 -8 4 -5 10 4 6 -1 7 -11 3 -12 -4 -15 -3 -10
5 5 9 -3 11 -28 8 -40 -6 -76 -22 -76 -35 0 -5 -11 -11 -25 -13 -30 -6 -37 16
-17 56 9 18 9 26 2 21 -8 -5 -9 -2 -1 11 14 27 24 58 23 67 -1 4 2 7 6 7 5 0
9 6 10 13 0 6 4 26 8 42 3 17 6 38 6 48 0 9 3 17 6 17 7 0 10 17 16 87 1 12 5
25 9 29 4 4 2 13 -4 20 -9 11 -7 15 6 20 13 5 14 9 3 15 -7 5 -8 9 -2 9 6 0
10 19 9 44 0 25 2 43 5 41 3 -2 7 22 8 52 1 31 8 63 14 71 11 13 11 14 -2 7
-13 -7 -13 -6 -2 7 10 13 10 17 0 20 -10 4 -10 8 -1 20 10 11 10 17 0 28 -9
10 -9 11 1 6 15 -9 16 8 1 36 -8 15 -8 19 0 14 6 -4 11 -3 11 3 0 5 -5 13 -10
16 -8 5 -8 11 0 20 6 7 7 16 2 19 -10 6 -9 42 1 52 3 3 1 14 -5 24 -9 14 -9
22 1 33 8 10 9 17 1 22 -5 3 -10 19 -10 36 0 16 -4 29 -9 29 -4 0 -7 10 -6 23
2 13 -5 40 -15 60 -10 20 -14 35 -9 31 5 -3 -2 11 -16 32 -14 20 -25 41 -25
46 0 5 -4 6 -10 3 -5 -3 -10 1 -10 9 0 9 -5 16 -11 16 -5 0 -7 5 -4 10 3 6 1
10 -5 10 -7 0 -9 7 -6 16 3 8 2 12 -4 9 -5 -3 -8 9 -6 29 1 19 -1 33 -6 30 -4
-3 -8 0 -8 5 0 6 5 11 11 11 8 0 8 5 -1 15 -10 12 -10 15 1 15 12 0 12 2 0 9
-8 5 -11 16 -8 25 4 9 2 16 -3 16 -6 0 -10 9 -10 20 0 12 -7 20 -17 20 -9 0
-13 3 -10 7 4 3 -2 13 -14 21 -13 9 -19 21 -16 33 3 11 2 19 -1 19 -4 0 -7 16
-7 35 0 19 3 35 8 35 5 0 2 11 -6 24 -10 15 -12 27 -6 33 11 11 -8 74 -25 85
-6 4 -7 8 -2 8 5 0 -1 11 -13 24 -14 15 -20 30 -16 37 5 7 4 10 -1 7 -10 -7
-35 17 -28 26 2 3 1 4 -3 1 -10 -8 -33 16 -26 28 3 5 1 7 -4 4 -6 -4 -27 9
-47 28 -21 19 -42 35 -47 35 -6 0 -17 6 -24 14 -11 10 -11 16 -2 26 9 10 9 11
0 6 -8 -4 -13 -1 -13 8 0 15 -13 21 -35 16 -5 -1 -7 1 -3 5 8 8 -20 40 -36 40
-6 1 -10 7 -8 14 1 7 -2 10 -6 7 -5 -3 -20 3 -32 14 -27 23 -34 25 -24 8 4 -7
-3 -4 -14 7 -41 39 -112 82 -113 68 0 -4 -4 2 -9 14 -6 15 -15 21 -25 17 -8
-3 -15 -1 -15 5 0 6 -7 8 -15 5 -8 -4 -15 -1 -15 5 0 6 -9 11 -20 11 -11 0
-20 5 -20 12 0 6 -3 8 -6 5 -4 -3 -16 0 -28 8 -11 8 -29 15 -39 15 -10 0 -26
7 -34 16 -12 11 -18 12 -23 4 -5 -8 -9 -9 -11 -2 -2 6 -17 13 -33 16 -16 3
-32 9 -35 13 -3 4 -15 8 -26 7 -11 0 -24 2 -30 5 -5 3 -19 6 -30 8 -11 1 -36
6 -55 11 -20 5 -43 8 -53 6 -9 -1 -17 2 -17 8 0 6 -7 4 -17 -3 -10 -8 -14 -9
-10 -2 5 7 1 12 -10 12 -48 1 -89 7 -98 13 -6 4 -17 3 -25 -3 -18 -11 -33 -12
-26 -1 2 4 -30 9 -72 10 -42 2 -83 8 -91 15 -12 9 -13 9 -7 0 4 -7 3 -13 -3
-13 -5 0 -13 5 -16 10 -5 8 -11 7 -21 -1 -11 -9 -14 -8 -14 2 0 9 -3 10 -8 4
-11 -15 -32 -17 -32 -2 0 8 -4 7 -10 -3 -5 -8 -10 -10 -10 -4 0 12 -29 12 -49
-1 -10 -5 -12 -4 -7 3 4 7 5 12 2 12 -3 0 -8 -4 -11 -10z"/>
</g>
</svg>
