<svg xmlns="http://www.w3.org/2000/svg" width="187" height="187" viewBox="0 0 187 187"><g transform="translate(0.046)"><path d="M0,2.25,5.363,63.073,29.5,71.095l24.142-8.022L59.01,2.25ZM48.114,14.544l-.738,7.269L29.658,29.388l-.046.015H46.747L44.78,51.932l-15.09,4.41L14.507,51.855,13.523,40.5h7.515l.492,5.886,8.083,2.044,8.406-2.367.569-9.466-25.555-.077V36.5L13,36.519,12.447,29.4l17.226-7.176,1-.415H11.787L10.9,14.544Z" transform="translate(63.719 56.365)" fill="#fff"/><g transform="translate(-0.046)" fill="none" stroke="#707070" stroke-width="1"><rect width="187" height="187" rx="93.5" stroke="none"/><rect x="0.5" y="0.5" width="186" height="186" rx="93" fill="none"/></g></g></svg>