<svg xmlns="http://www.w3.org/2000/svg" width="186" height="187" viewBox="0 0 186 187"><path d="M0,0H68.845V68.845H0ZM63.2,52.425c-.5-3.141-2.547-5.78-8.614-8.241-2.111-.99-4.458-1.678-5.155-3.27a3.387,3.387,0,0,1-.132-2.022c.43-1.853,2.625-2.41,4.346-1.893a4.666,4.666,0,0,1,2.8,2.582c2.966-1.939,2.966-1.939,5.034-3.227A11.839,11.839,0,0,0,59.8,34.115C58,32.093,55.589,31.06,51.674,31.149l-2.022.255a9.247,9.247,0,0,0-4.905,2.883,9,9,0,0,0,1.632,12.825c3.916,2.926,9.641,3.568,10.373,6.325.688,3.356-2.5,4.432-5.64,4.045-2.326-.516-3.614-1.681-5.034-3.832l-5.249,3.015a11.6,11.6,0,0,0,2.324,3.181c4.991,5.037,17.469,4.779,19.71-2.88a9.709,9.709,0,0,0,.212-4.733l.132.192ZM37.437,31.643H30.989c0,5.559-.026,11.084-.026,16.652,0,3.534.181,6.778-.4,7.777-.947,1.976-3.385,1.724-4.492,1.377A5.535,5.535,0,0,1,23.694,55a2.461,2.461,0,0,0-.364-.562L18.095,57.66a10.146,10.146,0,0,0,3.8,4.352,12.624,12.624,0,0,0,9.2,1.162,8.057,8.057,0,0,0,5.195-4.047c1.463-2.668,1.153-5.938,1.139-9.6.034-5.892,0-11.787,0-17.725l.011-.161Z" transform="translate(58.578 59.025)" fill="#fff"/><g fill="none" stroke="#707070" stroke-width="1"><rect width="186" height="187" rx="93" stroke="none"/><rect x="0.5" y="0.5" width="185" height="186" rx="92.5" fill="none"/></g></svg>