<svg xmlns="http://www.w3.org/2000/svg" width="37.707" height="37.707" viewBox="0 0 37.707 37.707"><path d="M35.014,2.25H2.685A2.705,2.705,0,0,0,0,4.969v32.27a2.7,2.7,0,0,0,2.685,2.719H35.014a2.712,2.712,0,0,0,2.693-2.719V4.969A2.712,2.712,0,0,0,35.014,2.25ZM11.4,34.57H5.808v-18h5.6v18ZM8.6,14.118a3.24,3.24,0,1,1,3.24-3.24,3.242,3.242,0,0,1-3.24,3.24ZM32.346,34.57H26.757V25.817c0-2.087-.042-4.772-2.9-4.772-2.912,0-3.358,2.273-3.358,4.621v8.9H14.906v-18h5.361v2.458h.076a5.886,5.886,0,0,1,5.294-2.9c5.656,0,6.708,3.729,6.708,8.577Z" transform="translate(0 -2.25)" fill="#f8ffff"/></svg>