<svg xmlns="http://www.w3.org/2000/svg" width="37" height="25.615" viewBox="0 0 37 25.615"><g transform="translate(-3.375 -7.875)"><path d="M40.073,10.37,30.5,20.4a.18.18,0,0,0,0,.256l6.7,7.338a1.211,1.211,0,0,1,0,1.683,1.137,1.137,0,0,1-1.637,0l-6.671-7.31a.179.179,0,0,0-.258,0l-1.628,1.7A7.064,7.064,0,0,1,21.9,26.281,7.207,7.207,0,0,1,16.69,24l-1.565-1.638a.179.179,0,0,0-.258,0L8.2,29.675a1.137,1.137,0,0,1-1.637,0,1.211,1.211,0,0,1,0-1.683l6.7-7.338a.2.2,0,0,0,0-.256L3.677,10.37a.175.175,0,0,0-.3.128V30.563A2.9,2.9,0,0,0,6.221,33.49H37.529a2.9,2.9,0,0,0,2.846-2.928V10.5A.177.177,0,0,0,40.073,10.37Z" fill="#fff"/><path d="M21.874,20.749A5.658,5.658,0,0,0,25.4,19.6L39.531,8.367a3.358,3.358,0,0,0-1.784-.492H6.01a3.335,3.335,0,0,0-1.784.492L18.361,19.6A5.656,5.656,0,0,0,21.874,20.749Z" transform="translate(0)" fill="#fff"/></g></svg>