<svg xmlns="http://www.w3.org/2000/svg" width="187" height="187" viewBox="0 0 187 187"><g fill="none" stroke="#707070" stroke-width="1"><rect width="187" height="187" rx="93.5" stroke="none"/><rect x="0.5" y="0.5" width="186" height="186" rx="93" fill="none"/></g><path d="M46.827,62.252a1.956,1.956,0,0,1-.9-.237l-2.842-1.688c-.429-.237-.222-.326-.074-.37a5.184,5.184,0,0,0,1.288-.592.255.255,0,0,1,.207.015l2.191,1.3a.283.283,0,0,0,.266,0l8.557-4.945a.28.28,0,0,0,.133-.237V45.626a.251.251,0,0,0-.133-.237l-8.557-4.93a.283.283,0,0,0-.266,0l-8.557,4.93a.267.267,0,0,0-.133.237V55.5a.275.275,0,0,0,.133.222l2.339,1.347c1.273.637,2.058-.118,2.058-.859V46.455a.25.25,0,0,1,.252-.252h1.081a.25.25,0,0,1,.252.252v9.756a2.361,2.361,0,0,1-2.532,2.665,3.669,3.669,0,0,1-1.969-.533l-2.25-1.288a1.829,1.829,0,0,1-.9-1.554V45.626a1.779,1.779,0,0,1,.9-1.554l8.557-4.945a1.837,1.837,0,0,1,1.791,0l8.557,4.945a1.829,1.829,0,0,1,.9,1.554V55.5a1.779,1.779,0,0,1-.9,1.554L47.716,62a1.639,1.639,0,0,1-.888.252Zm6.914-9.742c0-1.851-1.244-2.339-3.879-2.694-2.665-.355-2.931-.533-2.931-1.155,0-.518.222-1.2,2.191-1.2,1.762,0,2.413.385,2.68,1.569a.238.238,0,0,0,.237.192h1.11a.245.245,0,0,0,.178-.074.233.233,0,0,0,.059-.192c-.178-2.043-1.525-2.991-4.264-2.991-2.443,0-3.894,1.036-3.894,2.754,0,1.88,1.451,2.384,3.79,2.62,2.8.281,3.02.681,3.02,1.229,0,.962-.77,1.362-2.576,1.362-2.265,0-2.768-.563-2.931-1.688a.244.244,0,0,0-.252-.207h-1.11a.25.25,0,0,0-.252.252c0,1.436.785,3.153,4.53,3.153,2.739,0,4.293-1.066,4.293-2.931Zm8.069-7.417a1.643,1.643,0,1,1-1.643-1.643A1.63,1.63,0,0,1,61.81,45.093Zm-.266,0a1.384,1.384,0,1,0-1.392,1.392A1.409,1.409,0,0,0,61.543,45.093Zm-.666.918h-.385c-.015-.089-.074-.563-.074-.577-.03-.1-.059-.163-.192-.163H59.9v.74h-.355V44.161h.637c.222,0,.651,0,.651.489a.434.434,0,0,1-.355.459c.252.015.266.178.311.415a2.063,2.063,0,0,0,.089.489Zm-.415-1.3c0-.252-.178-.252-.266-.252h-.3v.518h.281a.25.25,0,0,0,.281-.266Zm-40.136-21.1a1.077,1.077,0,0,0-.548-.948L10.7,17.438a1.171,1.171,0,0,0-.5-.148h-.089a1.043,1.043,0,0,0-.5.148L.548,22.664A1.094,1.094,0,0,0,0,23.612L.015,37.676a.566.566,0,0,0,.266.474.521.521,0,0,0,.548,0l5.389-3.094a1.112,1.112,0,0,0,.548-.947V27.535a1.094,1.094,0,0,1,.548-.948L9.608,25.27a1.052,1.052,0,0,1,.548-.148,1.016,1.016,0,0,1,.548.148L13,26.588a1.094,1.094,0,0,1,.548.948v6.573a1.094,1.094,0,0,0,.548.947l5.389,3.094a.521.521,0,0,0,.548,0,.547.547,0,0,0,.266-.474ZM69.952,8.259V34.375a1.094,1.094,0,0,1-.548.948l-9.075,5.241a1.112,1.112,0,0,1-1.1,0l-9.075-5.241a1.094,1.094,0,0,1-.548-.948V23.893a1.094,1.094,0,0,1,.548-.948L59.234,17.7a1.112,1.112,0,0,1,1.1,0l2.265,1.3a.388.388,0,0,0,.577-.326V4.765a.544.544,0,0,1,.814-.474l5.4,3.02a1.073,1.073,0,0,1,.563.948Zm-6.81,19.083a.28.28,0,0,0-.133-.237L59.9,25.3a.314.314,0,0,0-.281,0L56.51,27.106a.251.251,0,0,0-.133.237v3.6a.28.28,0,0,0,.133.237l3.109,1.791a.283.283,0,0,0,.266,0l3.109-1.791a.251.251,0,0,0,.133-.237v-3.6Zm31.06-.1a1.094,1.094,0,0,0,.548-.948V23.76a1.094,1.094,0,0,0-.548-.948l-9.016-5.241a1.112,1.112,0,0,0-1.1,0l-9.075,5.241a1.094,1.094,0,0,0-.548.948V34.242a1.077,1.077,0,0,0,.548.947l9.016,5.137a1.084,1.084,0,0,0,1.081,0l5.448-3.035a.543.543,0,0,0,0-.948L81.426,31.1a.548.548,0,0,1-.281-.474V27.343a.548.548,0,0,1,.281-.474l2.842-1.643a.521.521,0,0,1,.548,0l2.843,1.643a.581.581,0,0,1,.281.474v2.576a.556.556,0,0,0,.829.474L94.2,27.239Zm-11.444.518a.226.226,0,0,0-.1.178v2.013a.205.205,0,0,0,.1.178l1.747,1.007a.178.178,0,0,0,.207,0l1.747-1.007a.226.226,0,0,0,.1-.178V27.935a.205.205,0,0,0-.1-.178L84.713,26.75a.178.178,0,0,0-.207,0ZM45.125,34.2V23.775a1.123,1.123,0,0,0-.577-.948L35.5,17.616a1.111,1.111,0,0,0-1.1,0L25.36,22.827a1.1,1.1,0,0,0-.577.948V34.2a1.142,1.142,0,0,0,.592.948l9.06,5.211a1.075,1.075,0,0,0,1.1,0l9.031-5.211a1.1,1.1,0,0,0,.533-.7,1.3,1.3,0,0,0,.03-.252Zm-11-18.491-.118.074h.163ZM45.406,34.982l-.059-.1v.133Z" transform="translate(46.177 60.212)" fill="#fffcf2"/></svg>