<svg xmlns="http://www.w3.org/2000/svg" width="186" height="187" viewBox="0 0 186 187"><g fill="none" stroke="#707070" stroke-width="1"><rect width="186" height="187" rx="93" stroke="none"/><rect x="0.5" y="0.5" width="185" height="186" rx="92.5" fill="none"/></g><g transform="translate(46.412 46.635)"><path d="M2,2H95.177V95.177H2V2M14.01,13.427v67.4H25.587V51.49q4.22,14.669,8.439,29.334H45.587v-67.4H33.94V40.974Q29.727,27.2,25.49,13.427H14.01M71.43,29.4V69.134H63.017V56.9c-3.893.912-7.794,1.8-11.69,2.709V71.886a13.943,13.943,0,0,0,.256,3.661A7.278,7.278,0,0,0,54.455,79.6a6.912,6.912,0,0,0,3.97,1.235h15.85a13.5,13.5,0,0,0,3.594-.266,7.374,7.374,0,0,0,4.15-3.1,7.108,7.108,0,0,0,1.118-4.023q0-22.02,0-44.039Z" transform="translate(-2 -2)" fill="#141414"/><path d="M5.609,5.434H17.09q4.23,13.774,8.446,27.55c-.023-9.181,0-18.362,0-27.547H37.183v67.4H25.622Q21.4,58.169,17.183,43.5V72.834H5.609Z" transform="translate(6.401 5.993)" fill="#fefffc"/><path d="M36.948,10.233H48.642V54.272A7.108,7.108,0,0,1,47.524,58.3a7.374,7.374,0,0,1-4.15,3.1,13.5,13.5,0,0,1-3.594.266H23.93a6.912,6.912,0,0,1-3.97-1.235A7.278,7.278,0,0,1,17.1,56.379a13.943,13.943,0,0,1-.256-3.661V40.446c3.9-.908,7.8-1.8,11.69-2.709V49.966h8.416Z" transform="translate(32.485 17.164)" fill="#fefffc"/></g></svg>