<svg xmlns="http://www.w3.org/2000/svg" width="187" height="187" viewBox="0 0 187 187"><path d="M0,.45V67.573H68.844V.45ZM2.869,3.319H65.976V64.7H2.869ZM16.637,16.169c0-.192.4-.333.643-.333,1.847-.095,4.555-.143,7.4-.143,7.952,0,11.044,4.36,11.044,9.942,0,7.286-5.284,10.413-11.767,10.413-1.09,0-1.463-.049-2.223-.049V47.02c0,.238-.095.333-.33.333H16.97c-.238,0-.33-.086-.33-.324V16.169Zm5.092,15.238c.66.046,1.182.046,2.324.046,3.356,0,6.512-1.182,6.512-5.726,0-3.643-2.255-5.49-6.087-5.49-1.136,0-2.223.046-2.745.095V31.416ZM46.418,28c-2.272,0-3.029,1.136-3.029,2.083,0,1.041.516,1.75,3.548,3.313,4.5,2.18,5.915,4.26,5.915,7.335,0,4.59-3.5,7.057-8.233,7.057a12.533,12.533,0,0,1-5.88-1.233c-.186-.095-.229-.235-.229-.473V41.871c0-.287.138-.382.327-.241a10.567,10.567,0,0,0,5.771,1.7c2.272,0,3.218-.947,3.218-2.226,0-1.041-.66-1.942-3.548-3.457C40.205,35.7,38.5,33.722,38.5,30.4c0-3.692,2.886-6.77,7.9-6.77a13.37,13.37,0,0,1,5.146.8.625.625,0,0,1,.287.568v3.93c0,.238-.143.382-.43.287a10.272,10.272,0,0,0-5-1.233Z" transform="translate(59.13 59.471)" fill="#fff"/><g fill="none" stroke="#707070" stroke-width="1"><rect width="187" height="187" rx="93.5" stroke="none"/><rect x="0.5" y="0.5" width="186" height="186" rx="93" fill="none"/></g></svg>