<svg xmlns="http://www.w3.org/2000/svg" width="187" height="187" viewBox="0 0 187 187"><path d="M64.262,24.561q-1.245-.415-2.489-.784c.138-.569.261-1.137.384-1.706,1.89-9.158.645-16.519-3.55-18.947-4.041-2.32-10.633.092-17.3,5.9-.661.569-1.306,1.168-1.921,1.767-.415-.4-.845-.8-1.275-1.183C31.117,3.4,24.11.789,19.915,3.232,15.889,5.568,14.69,12.5,16.38,21.165c.169.861.353,1.706.569,2.566-.983.277-1.952.584-2.858.907C5.885,27.48,0,31.967,0,36.608c0,4.794,6.269,9.6,14.8,12.523.691.23,1.383.461,2.09.661-.23.922-.43,1.829-.615,2.766-1.613,8.528-.353,15.289,3.673,17.61,4.149,2.4,11.125-.061,17.917-6.008.538-.476,1.076-.968,1.613-1.491.676.661,1.383,1.291,2.09,1.905,6.577,5.655,13.077,7.944,17.087,5.624,4.149-2.4,5.5-9.665,3.749-18.516q-.207-1.014-.461-2.074c.492-.138.968-.292,1.444-.446,8.866-2.935,15.289-7.683,15.289-12.554,0-4.656-6.054-9.174-14.414-12.047ZM43.471,11.515c5.716-4.979,11.048-6.93,13.476-5.532,2.6,1.491,3.6,7.514,1.967,15.428-.108.522-.215,1.03-.353,1.537a78.664,78.664,0,0,0-10.341-1.629,77.637,77.637,0,0,0-6.546-8.159c.6-.569,1.183-1.106,1.8-1.644ZM25.692,44.583c.784,1.337,1.583,2.674,2.428,3.98a69.579,69.579,0,0,1-7.13-1.152,71.782,71.782,0,0,1,2.5-6.838c.707,1.352,1.429,2.689,2.2,4.011ZM21.036,26.1c2.213-.492,4.564-.891,7.007-1.2-.814,1.275-1.613,2.582-2.366,3.9-.753,1.306-1.491,2.643-2.182,4-.968-2.29-1.782-4.533-2.459-6.7Zm4.21,10.587c1.014-2.121,2.121-4.195,3.288-6.239s2.428-4.026,3.749-5.977c2.3-.169,4.656-.261,7.053-.261s4.764.092,7.053.261q1.959,2.9,3.734,5.947t3.334,6.208Q51.915,39.8,50.14,42.893c-1.168,2.044-2.413,4.026-3.719,5.993-2.29.169-4.671.246-7.084.246s-4.748-.077-7.007-.215q-2.005-2.927-3.78-5.993C27.367,40.88,26.276,38.805,25.247,36.685ZM53,44.552c.784-1.352,1.521-2.72,2.243-4.1a71.332,71.332,0,0,1,2.6,6.807,67.494,67.494,0,0,1-7.222,1.229C51.446,47.2,52.23,45.874,53,44.552ZM55.211,32.8c-.722-1.352-1.46-2.7-2.228-4.026q-1.129-1.959-2.351-3.872a70.712,70.712,0,0,1,7.053,1.229A68,68,0,0,1,55.211,32.8ZM39.368,15.51a67.477,67.477,0,0,1,4.548,5.5c-3.043-.138-6.1-.138-9.143,0C36.28,19.029,37.832,17.185,39.368,15.51ZM21.543,6.091c2.582-1.506,8.313.645,14.352,5.993.384.338.768.707,1.168,1.076a78.069,78.069,0,0,0-6.592,8.159,81,81,0,0,0-10.326,1.6c-.2-.784-.369-1.583-.538-2.382C18.163,13.1,19.116,7.489,21.543,6.091ZM17.779,46.6c-.645-.184-1.275-.384-1.905-.6A31.34,31.34,0,0,1,6.193,41.2,6.9,6.9,0,0,1,3.3,36.608c0-2.812,4.856-6.408,11.863-8.851.876-.307,1.767-.584,2.658-.845a81.709,81.709,0,0,0,3.765,9.773A84,84,0,0,0,17.779,46.6ZM35.7,61.655a28.125,28.125,0,0,1-8.667,5.424,6.8,6.8,0,0,1-5.424.2c-2.443-1.414-3.457-6.838-2.074-14.137.169-.861.353-1.721.569-2.566a76.874,76.874,0,0,0,10.434,1.506,81.092,81.092,0,0,0,6.638,8.206C36.679,60.764,36.188,61.225,35.7,61.655Zm3.765-3.734c-1.567-1.69-3.135-3.565-4.656-5.578,1.475.061,3,.092,4.533.092,1.583,0,3.135-.031,4.671-.108a66.269,66.269,0,0,1-4.548,5.593Zm20.084,4.61a6.829,6.829,0,0,1-2.535,4.81c-2.443,1.414-7.652-.43-13.276-5.255-.645-.553-1.291-1.152-1.952-1.767a76.016,76.016,0,0,0,6.485-8.236,75.75,75.75,0,0,0,10.48-1.613c.154.63.292,1.26.415,1.875A28.012,28.012,0,0,1,59.544,62.531Zm2.8-16.519c-.43.138-.861.277-1.306.4a78.06,78.06,0,0,0-3.918-9.8,77.669,77.669,0,0,0,3.765-9.665c.8.23,1.567.476,2.3.722,7.161,2.459,12.185,6.116,12.185,8.912,0,3.012-5.363,6.9-13.031,9.435Zm-23-2.3A7.038,7.038,0,1,0,32.3,36.669,7.037,7.037,0,0,0,39.338,43.707Z" transform="translate(54.11 56.551)" fill="#fff"/><g fill="none" stroke="#707070" stroke-width="1"><rect width="187" height="187" rx="93.5" stroke="none"/><rect x="0.5" y="0.5" width="186" height="186" rx="93" fill="none"/></g></svg>