<svg xmlns="http://www.w3.org/2000/svg" width="187" height="187" viewBox="0 0 187 187"><g transform="translate(0.046)"><path d="M100.1,54.346a9.041,9.041,0,0,0-4.067-6.34c.559.4,1.032.737-.011-.008-1.406-1-.661-.472-.009-.006-5.574-3.97-12.845-3.088-18.919-.882-2.434-3.969-2.54-7-1.137-11.331.182-.548.058-.852-.513-1.1a8.089,8.089,0,0,0-4.776.091,1.137,1.137,0,0,0-.939.857c-1.008,4.741-4.109,9.084-6.812,13.082-1.9-3.648-1.752-6.471-.472-10.271a.659.659,0,0,0-.379-.954c-1.42-.735-3.6-.374-5.046.054-1.664.485-4.164,8.722-4.962,10.355C50.384,51.306,48.9,56.63,46.07,59.337c-2.406-3.092,4.406-10.076,2.128-12.879a2.1,2.1,0,0,0-3.048-.12,7.813,7.813,0,0,0-.063-3.728,2.785,2.785,0,0,0-2.951-2.052c-3.519.1-6.619,2.7-8.731,5.163-2.01,2.368-7.311,3.839-10.161,5.266C18.349,46.721,7.75,42.2,7.474,34.933c-.3-8.184,9.45-13.739,15.959-17.06C31.9,13.549,44.939,8.17,54.557,12.9a5.481,5.481,0,0,1,2.876,6.522C55.6,26.141,48.2,30.625,41.767,32.682a28.15,28.15,0,0,1-9.994,1.57c-4.49-.263-7.986-2.978-8.465-3.146-.4-.076-.369.442-.263.717C27.7,44.033,51.29,35.084,57.458,28.816A18.1,18.1,0,0,0,63,18.275c.9-5.395-3.058-8.77-6.064-10.162C41.7,1.058,20.633,10.3,9.11,19.716,4.109,23.8-2.146,30.3.724,37.113,3.84,44.506,13.385,48.3,19.6,52.82c-5.027,2.5-11.317,5.082-14.574,9.766-1.863,2.685-2.524,5.546-1.137,8.6,2.459,5.392,11.4,3.055,15.172.679a14.826,14.826,0,0,0,6.787-8.846,13.958,13.958,0,0,0-.754-9.684l5.591-2.828c-1.505,4.513-2.17,10.171.955,14.249a4.083,4.083,0,0,0,5.832.061,34.9,34.9,0,0,0,4.01-7.277c-.133,1.833-.363,3.911.269,5.509.726,1.833,2.372,2.208,4.067,1.045C51,60.533,54.3,50.666,56.858,44.914a32.079,32.079,0,0,0,2.73,7.114,1.031,1.031,0,0,1-.156,1.407c-1.894,2.088-6.42,5.57-6.859,8.39a1.284,1.284,0,0,0,1.112,1.441,12.329,12.329,0,0,0,8.9-2.167,6.162,6.162,0,0,0,2.786-6.946c-.895-4.062,2.15-8.6,5.046-11.936a20.724,20.724,0,0,0,2.766,7.159c-2.557,2.246-6.372,5.43-5.824,9.18a2.272,2.272,0,0,0,2.839,1.9,13.113,13.113,0,0,0,7.7-4.331c1.765-2.123,1.133-4.44.363-6.774A23.026,23.026,0,0,1,92.3,49.352a8.681,8.681,0,0,1,5.134,4.072c1.315,2.473.575,4.751-1.966,6.377-.643.411-1.088.75-.87.928s.958.413,2.6-.616a5.838,5.838,0,0,0,2.9-4.249A7.256,7.256,0,0,0,100.1,54.346Zm-78,4.94a11.3,11.3,0,0,1-4.533,8.041,10.24,10.24,0,0,1-5.187,2.365c-1.842.179-3.276-.286-3.4-2.2-.345-5.377,8-10.644,12.639-12.23a10.919,10.919,0,0,1,.476,4.026Zm20.165-14.17c-.763,4.363-2.9,12.194-6.32,15.321-.461.419-.9.395-1.136-.151-2.023-4.705.718-14.408,6.47-15.906C41.945,44.206,42.365,44.493,42.255,45.116ZM56.006,61.108q2.471-2.629,4.942-5.266C61.152,57.8,57.512,61.7,56.006,61.108Zm15.786-3.461c-.459.249-1.491.492-1.531.163-.29-2.364,2.311-4.865,3.925-6.037A4.728,4.728,0,0,1,71.792,57.647Z" transform="translate(43.155 53.176)" fill="#fff"/><g transform="translate(-0.046)" fill="none" stroke="#707070" stroke-width="1"><rect width="187" height="187" rx="93.5" stroke="none"/><rect x="0.5" y="0.5" width="186" height="186" rx="93" fill="none"/></g></g></svg>