<svg xmlns="http://www.w3.org/2000/svg" width="187" height="187" viewBox="0 0 187 187"><g transform="translate(-0.046)"><path d="M56.653.45H12.191A12.181,12.181,0,0,0,0,12.641V55.382A12.181,12.181,0,0,0,12.191,67.573H56.653A12.181,12.181,0,0,0,68.845,55.382V12.641A12.181,12.181,0,0,0,56.653.45Zm9.294,53.813A10.393,10.393,0,0,1,55.563,64.7H13.281A10.43,10.43,0,0,1,2.869,54.292V13.731A10.43,10.43,0,0,1,13.281,3.319H55.535A10.413,10.413,0,0,1,65.947,13.731ZM27.222,31.86l8.032,15.433c.143.229.057.459-.172.459H30.091a.563.563,0,0,1-.6-.373c-1.836-3.786-3.7-7.573-5.622-11.646h-.057c-1.721,3.844-3.614,7.888-5.45,11.675a.551.551,0,0,1-.516.316H13.109c-.287,0-.316-.229-.172-.4L20.8,32.348,13.2,17.2a.232.232,0,0,1,.172-.4H18.3a.452.452,0,0,1,.516.316c1.807,3.786,3.643,7.688,5.364,11.5h.057c1.664-3.786,3.5-7.716,5.278-11.474.143-.229.229-.373.516-.373h4.618c.229,0,.316.172.172.4Zm9.437,4.676c0-6.684,4.446-11.9,11.5-11.9a12.721,12.721,0,0,1,1.492.057v-7.6a.287.287,0,0,1,.287-.287h4.532c.229,0,.287.086.287.229V43.363a20.431,20.431,0,0,0,.143,2.811c0,.172-.057.229-.229.316a17.087,17.087,0,0,1-7.343,1.664C41.106,48.182,36.66,44.338,36.66,36.536Zm12.994-7.343a4.338,4.338,0,0,0-1.664-.287c-3.614,0-6.139,2.782-6.139,7.4,0,5.278,2.582,7.4,5.823,7.4a5.412,5.412,0,0,0,1.979-.316v-14.2Z" transform="translate(59.587 59.212)" fill="#fff"/><g transform="translate(0.046)" fill="none" stroke="#707070" stroke-width="1"><rect width="187" height="187" rx="93.5" stroke="none"/><rect x="0.5" y="0.5" width="186" height="186" rx="93" fill="none"/></g></g></svg>